<?xml version="1.0" encoding="UTF-8" standalone="no"?>
<svg
   width="584"
   height="167"
   viewBox="0 0 584 167"
   fill="none"
   version="1.1"
   id="svg22"
   sodipodi:docname="OKGR-landscape-full-rgb.svg"
   inkscape:version="1.3.2 (091e20e, 2023-11-25, custom)"
   xmlns:inkscape="http://www.inkscape.org/namespaces/inkscape"
   xmlns:sodipodi="http://sodipodi.sourceforge.net/DTD/sodipodi-0.dtd"
   xmlns="http://www.w3.org/2000/svg"
   xmlns:svg="http://www.w3.org/2000/svg">
  <defs
     id="defs22" />
  <sodipodi:namedview
     id="namedview22"
     pagecolor="#ffffff"
     bordercolor="#000000"
     borderopacity="0.25"
     inkscape:showpageshadow="2"
     inkscape:pageopacity="0.0"
     inkscape:pagecheckerboard="0"
     inkscape:deskcolor="#d1d1d1"
     inkscape:zoom="1.4868615"
     inkscape:cx="402.18944"
     inkscape:cy="-34.300437"
     inkscape:window-width="1920"
     inkscape:window-height="1010"
     inkscape:window-x="-6"
     inkscape:window-y="411"
     inkscape:window-maximized="1"
     inkscape:current-layer="g2" />
  <g
     id="g3"
     transform="matrix(1.3967951,0,0,1.3967951,154.80485,-338.32995)">
    <g
       style="fill:none"
       id="g2"
       transform="matrix(0.26458333,0,0,0.26458333,-16.26592,266.59494)">
      <path
         d="m -78.05253,83.986698 c 10.790066,10.790065 16.955821,23.378482 19.267983,38.535952 L -29.240323,91.693885 47.831592,14.621979 -9.9723416,-43.181956 -89.612033,36.45902 V -76.579789 l -82.210037,-3.24e-4 -1.54169,151.575083 c 29.03042,-20.809415 69.87878,-16.185092 95.31123,8.991728 z"
         fill="#00d1ff"
         id="path1-6"
         style="stroke-width:2.56907" />
      <path
         d="m -58.784547,149.49757 c -6.165756,39.56436 -43.417173,66.79643 -82.980763,60.37377 -11.30388,-1.79834 -22.09394,-2.05526 -31.34258,-8.99173 l 1.28454,145.15211 h 82.210037 V 234.27744 l 79.6409714,79.64099 56.5194056,-57.80394 -73.989037,-75.53048 z"
         fill="#00d1ff"
         id="path2"
         style="stroke-width:2.56907" />
      <path
         d="m -58.784547,146.92851 c -6.422661,39.56435 -43.674083,66.79642 -83.494573,60.37376 -39.56357,-6.42266 -66.79565,-43.67484 -60.37299,-83.49534 2.56905,-15.15747 9.76243,-29.287322 20.29559,-40.0774 2.82597,-2.82596 5.65195,-5.138122 8.73482,-7.450283 32.37021,-23.635387 77.842637,-16.44201 101.47802,15.928199 6.679566,9.248634 11.303877,20.038704 13.102227,31.599484 L -27.955784,92.721257 50.143753,14.621721 -9.9723416,-45.49437 -88.071879,32.34826 V -77.864645 H -173.36479 V 32.34826 l -77.84263,-77.84263 -60.373,60.372998 78.09953,78.099534 h -110.46973 v 85.293698 h 110.21283 l -77.84263,77.84263 60.373,60.37299 78.09953,-78.09954 v 110.21284 h 85.292917 V 238.38794 L -9.7154366,316.48748 50.657564,256.11449 -27.441973,178.01418 Z M -76.254179,43.909047 -9.7154366,-22.629703 27.535988,14.621721 -39.002754,81.417381 -51.59117,94.005784 c -4.367405,-7.964093 -9.505539,-15.15747 -15.9282,-21.580131 -6.42266,-6.422661 -13.616037,-11.817687 -21.323225,-15.928199 z m -28.002801,-105.33169 v 112.01126 c -17.21273,-5.138131 -35.45307,-5.138131 -52.6658,0 V -61.679549 c 0,0 52.6658,0 52.6658,0.256906 z m -184.20187,76.301271 37.25143,-37.251425 61.65752,61.65753 v 29.287326 c -1.54143,1.284527 -2.82595,2.569067 -4.11049,3.853594 -6.42267,6.422661 -11.81769,13.616038 -15.9282,21.580131 L -222.177,81.417381 Z m -39.04976,146.950452 v -52.66581 h 112.01118 c -5.13813,17.21273 -5.13813,35.45307 0,52.66581 z m 137.95871,69.8793 -61.91443,61.65754 -37.25142,-37.25143 66.53875,-66.28185 12.58841,-12.58918 c 4.36741,7.96487 9.50553,15.15825 15.9282,21.324 1.28454,1.28453 2.56906,2.56907 4.11049,3.8536 z m 85.29292,6.67956 v 94.02774 h -52.92271 V 220.4045 c 17.21273,5.13813 35.45308,5.13813 52.6658,0 z m 94.2846384,54.97798 -66.2818374,-66.53876 -12.588416,-12.58841 c 15.928199,-8.47791 28.773508,-21.32323 37.251425,-37.25219 l 12.588416,12.58918 66.538742,66.53875 z"
         fill="#000000"
         id="path3"
         sodipodi:nodetypes="cccccccccccccccccccccccccccccccccccsccscccsccccsccccccccccccccccccccccccccccc"
         style="stroke-width:2.56907" />
      <path
         d="m 83.541584,64.718465 c 0,-30.314954 18.497256,-50.096744 45.986236,-50.096744 27.48898,0 45.98625,20.038697 45.98625,50.096744 0,30.058048 -18.49727,50.096745 -45.98625,50.096745 C 102.03884,114.5583 83.541584,94.776513 83.541584,64.718465 Z m 74.502836,0 c 0,-20.809418 -11.04697,-33.911642 -28.7735,-33.911642 -17.72654,0 -28.77352,12.845317 -28.77352,33.911642 0,20.809415 11.04698,33.654736 28.77352,33.654736 17.72653,0 28.7735,-13.102226 28.7735,-33.654736 z"
         fill="#000000"
         id="path4"
         style="stroke-width:2.56907" />
      <path
         d="m 258.24048,78.590383 c 0,22.093947 -12.07459,35.196167 -28.77351,35.196167 -7.70719,0 -15.41439,-3.08288 -19.52489,-8.221 v 34.93927 H 193.50007 V 44.678739 h 16.44201 v 6.679568 c 4.62431,-5.908849 12.33151,-8.221007 19.52489,-8.221007 18.75416,0 28.77351,15.157479 28.77351,35.453083 z m -16.44201,0 c 0,-13.359133 -5.13812,-20.809415 -16.18509,-20.809415 -12.07461,0 -17.21273,8.73481 -17.21273,20.809415 0,11.817687 5.13812,21.06632 16.95582,21.06632 11.04697,-0.256906 16.442,-7.964093 16.442,-21.06632 z"
         fill="#000000"
         id="path5"
         style="stroke-width:2.56907" />
      <path
         d="m 332.99767,83.98696 h -46.50006 c 0.77072,8.991715 6.16576,14.900565 16.95582,14.900565 6.16576,0 11.5608,-2.055256 16.18511,-7.193377 l 11.56078,10.019352 c -7.45028,8.221 -16.44201,12.3315 -27.74589,12.3315 -23.37848,0 -33.39783,-16.955825 -33.39783,-34.939268 0,-17.726537 9.76245,-35.709984 32.37021,-35.709984 21.06632,0 31.34258,15.671286 31.34258,34.425457 -0.51381,2.055243 -0.51381,4.110499 -0.77072,6.165755 z M 317.32638,70.884733 C 317.06947,62.149911 310.38991,57.01179 301.6551,57.01179 c -10.01935,0 -14.64368,7.193377 -15.6713,13.872943 z"
         fill="#000000"
         id="path6"
         style="stroke-width:2.56907" />
      <path
         d="m 413.40936,68.829478 v 43.930992 h -16.442 V 72.939977 c 0,-4.62431 0,-15.15747 -12.58842,-15.15747 -15.41438,0 -15.41438,15.671281 -15.41438,27.745886 V 112.76047 H 352.26564 V 44.68028 h 16.44201 v 7.964093 c 4.88123,-6.422654 12.33151,-9.248625 20.55251,-9.248625 15.41439,-0.256906 24.1492,9.248625 24.1492,25.43373 z"
         fill="#000000"
         id="path7"
         style="stroke-width:2.56907" />
      <path
         d="M 537.49771,112.50357 508.9811,64.718978 490.74076,83.216232 V 112.50357 H 473.52802 V 16.420579 h 17.21274 v 45.215522 l 43.16026,-45.215522 h 22.60776 l -35.70999,36.480699 36.73762,59.859192 z"
         fill="#000000"
         id="path8"
         style="stroke-width:2.56907" />
      <path
         d="M 630.50039,68.829478 V 112.76047 H 614.05838 V 72.939977 c 0,-4.62431 0,-15.15747 -12.58842,-15.15747 -15.41438,0 -15.41438,15.671281 -15.41438,27.745886 V 112.76047 H 569.61357 V 44.68028 h 16.44201 v 7.964093 c 4.88122,-6.422654 12.33152,-9.248625 20.55251,-9.248625 15.15747,-0.256906 23.8923,9.248625 23.8923,25.43373 z"
         fill="#000000"
         id="path9"
         style="stroke-width:2.56907" />
      <path
         d="m 637.17481,78.591921 c 0,-19.267982 12.84532,-35.196173 34.16855,-35.196173 21.06632,0 34.16855,15.928191 34.16855,35.196173 0,19.267982 -13.10223,35.453079 -34.16855,35.453079 -21.06632,0 -34.16855,-16.442002 -34.16855,-35.453079 z m 51.63818,0 c 0,-11.046971 -4.88122,-20.809414 -17.46963,-20.809414 -12.58841,0 -17.46963,9.762443 -17.46963,20.809414 0,11.046971 4.88122,21.06632 17.46963,21.06632 12.58841,0 17.46963,-10.019349 17.46963,-21.06632 z"
         fill="#000000"
         id="path10"
         style="stroke-width:2.56907" />
      <path
         d="M 712.70786,44.68028 H 730.4344 L 741.99518,87.326743 754.8405,44.68028 h 14.12985 l 12.84532,42.389545 11.8177,-42.389545 h 17.72654 l -21.06632,68.08019 H 775.39301 L 762.03388,68.315667 748.67474,112.76047 h -14.90056 z"
         fill="#000000"
         id="path11"
         style="stroke-width:2.56907" />
      <path
         d="M 826.77428,96.318458 V 16.420579 h 16.44201 v 78.870258 c 0,3.082877 1.79835,4.367404 4.88123,4.367404 1.54143,0 3.33977,-0.256905 5.13812,-0.770716 v 13.359135 c -3.59669,1.28453 -7.45028,2.05524 -10.53316,2.05524 -9.24863,-0.2569 -15.9282,-5.90884 -15.9282,-17.983442 z"
         fill="#000000"
         id="path12"
         style="stroke-width:2.56907" />
      <path
         d="m 924.39866,83.98696 h -46.50001 c 0.77072,8.991715 6.16575,14.900565 16.95582,14.900565 6.16576,0 11.56079,-2.055256 16.18505,-7.193377 l 11.56087,10.019352 c -7.45035,8.221 -16.44203,12.3315 -27.74592,12.3315 -23.37848,0 -33.39783,-16.955825 -33.39783,-34.939268 0,-17.726537 9.76244,-35.709984 32.37021,-35.709984 21.06638,0 31.3426,15.671286 31.3426,34.425457 -0.25693,2.055243 -0.51386,4.110499 -0.77079,6.165755 z M 908.98433,70.884733 C 908.7274,62.149911 902.04785,57.01179 893.31304,57.01179 c -10.01935,0 -14.64367,7.193377 -15.6713,13.872943 z"
         fill="#000000"
         id="path13"
         style="stroke-width:2.56907" />
      <path
         d="M 1003.0095,16.420579 V 112.50357 H 986.56744 V 105.824 c -4.62424,5.90885 -12.33141,8.221 -19.52483,8.221 -18.49724,0 -28.77359,-15.157475 -28.77359,-35.453079 0,-22.093954 12.07461,-35.196173 28.77359,-35.196173 7.70716,0 15.41432,3.082876 19.52483,8.221003 V 16.420579 Z m -14.9006,62.171342 c 0,-11.303876 -5.13811,-20.295604 -16.95578,-20.295604 -11.04701,0 -16.18512,7.707188 -16.18512,20.295604 0,12.588416 5.13811,20.038699 16.18512,20.038699 11.81767,0 16.95578,-8.734822 16.95578,-20.038699 z"
         fill="#000000"
         id="path14"
         style="stroke-width:2.56907" />
      <path
         d="m 1083.4212,121.75271 c 0,14.12985 -12.8454,20.29561 -31.3426,20.29561 -20.2956,0 -31.8564,-7.45029 -31.8564,-21.58015 0,-1.54143 0.257,-2.31215 0.257,-3.08288 l 9.7624,-6.16574 c -4.8813,-2.56907 -8.221,-6.93647 -8.221,-13.872945 0,-5.908849 2.3121,-10.276254 6.4227,-13.616037 -3.3399,-4.367418 -5.3951,-9.762444 -5.3951,-15.671294 0,-14.643659 12.5885,-24.919919 27.7459,-24.919919 5.9089,0 11.5609,1.541439 15.9282,4.36741 l 10.2763,-8.734817 8.7348,10.533155 -9.7625,7.964106 c 1.7984,3.339783 2.826,7.450282 2.826,11.817687 0,15.157483 -12.5884,24.919926 -27.489,24.919926 -4.6243,0 -8.9916,-1.027634 -13.1022,-2.569066 -1.2845,0.770716 -2.0553,2.055243 -2.0553,3.596688 0,4.881216 6.9365,6.422666 15.4145,7.450286 13.8728,1.54144 31.8563,3.08287 31.8563,19.26798 z m -16.6989,1.54143 c 0,-5.13812 -8.7348,-5.90885 -18.4973,-7.19337 l -5.6519,-0.77072 -5.9088,5.65195 c -0.2569,0.51381 -0.2569,0.77071 -0.2569,1.02762 0,5.90885 8.4779,7.70718 16.1851,7.70718 7.1933,0 14.1298,-1.54143 14.1298,-6.42266 z m -27.232,-54.721055 c 0,6.422661 3.8535,11.8177 11.5607,11.8177 7.7072,0 11.304,-5.138134 11.304,-11.8177 0,-6.936472 -4.3675,-11.560782 -11.304,-11.560782 -6.9365,0 -11.5607,4.62431 -11.5607,11.560782 z"
         fill="#000000"
         id="path15"
         style="stroke-width:2.56907" />
      <path
         d="m 1154.8412,83.98696 h -46.5001 c 0.7707,8.991715 6.1657,14.900565 16.9558,14.900565 6.1658,0 11.5609,-2.055256 16.1851,-7.193377 l 11.5609,10.019352 c -7.4504,8.221 -16.4421,12.3315 -27.746,12.3315 -23.3784,0 -33.3978,-16.955825 -33.3978,-34.939268 0,-17.726537 9.7625,-35.709984 32.3702,-35.709984 21.0663,0 31.3426,15.671286 31.3426,34.425457 -0.2569,2.055243 -0.5138,4.110499 -0.7707,6.165755 z m -15.4144,-13.102227 c -0.2569,-8.734822 -6.9365,-13.872943 -15.6712,-13.872943 -10.0194,0 -14.6438,7.193377 -15.6714,13.872943 z"
         fill="#000000"
         id="path16"
         style="stroke-width:2.56907" />
      <path
         d="m 130.55544,200.65098 h 35.9669 v 48.42685 h -11.43233 l -1.9268,-9.24864 c -5.26659,7.19338 -14.90057,11.17543 -26.46136,11.17543 -25.04837,0 -44.187901,-18.49726 -44.187901,-46.88541 0,-26.58981 16.827368,-46.62851 43.674091,-46.62851 18.24035,0 32.88402,9.24864 39.43513,26.20446 l -14.77212,5.78038 c -3.98205,-11.04697 -12.84531,-16.69891 -24.91992,-16.69891 -17.21273,0 -27.360529,11.56079 -27.360529,31.21413 0,20.42406 10.918519,31.72793 29.158879,31.72793 14.38676,0 22.86466,-7.06492 22.86466,-19.13953 v -1.15607 h -20.0387 z"
         fill="#000000"
         id="path17"
         style="stroke-width:2.56907" />
      <path
         d="m 216.08985,184.46587 c 4.23895,0 7.96411,1.02763 12.07461,3.59669 l -7.45029,13.61604 c -2.1837,-1.41299 -4.62432,-2.18371 -7.7072,-2.18371 -9.37707,0 -14.00139,5.7804 -14.00139,17.72654 v 31.8564 H 183.5912 V 185.7504 h 15.54283 v 10.79007 c 2.69752,-7.83564 9.76244,-12.0746 16.95582,-12.0746 z"
         fill="#000000"
         id="path18"
         style="stroke-width:2.56907" />
      <path
         d="m 286.71599,216.57916 c 0,1.92681 -0.12845,3.8536 -0.38537,5.90885 h -43.41717 c 0.64227,8.34946 5.78039,13.87295 15.79974,13.87295 5.65194,0 10.79006,-1.79834 15.15748,-6.80802 l 10.66161,9.37708 c -6.93647,7.70719 -15.28593,11.43233 -25.94754,11.43233 -21.83704,0 -31.08567,-15.67128 -31.08567,-32.6271 0,-16.57046 8.99172,-33.26938 30.05804,-33.26938 19.65334,0 29.15888,14.51521 29.15888,32.11329 z m -43.93099,-6.2942 h 29.15887 c -0.25691,-8.09255 -6.42266,-12.97377 -14.51521,-12.97377 -9.37708,0 -13.74449,6.67957 -14.64366,12.97377 z"
         fill="#000000"
         id="path19"
         style="stroke-width:2.56907" />
      <path
         d="m 353.3241,216.57916 c 0,1.92681 -0.12588,3.8536 -0.38278,5.90885 h -43.41718 c 0.64226,8.34946 5.77782,13.87295 15.79717,13.87295 5.65194,0 10.79006,-1.79834 15.15748,-6.80802 l 10.66161,9.37708 c -6.93391,7.70719 -15.28336,11.43233 -25.94498,11.43233 -21.83704,0 -31.08567,-15.67128 -31.08567,-32.6271 0,-16.57046 8.99172,-33.26938 30.05548,-33.26938 19.65334,0 29.15887,14.51521 29.15887,32.11329 z m -43.93099,-6.2942 h 29.15887 c -0.2569,-8.09255 -6.42008,-12.97377 -14.51264,-12.97377 -9.37708,0 -13.74705,6.67957 -14.64623,12.97377 z"
         fill="#000000"
         id="path20"
         style="stroke-width:2.56907" />
      <path
         d="m 391.16127,250.36235 c -20.68096,0 -30.70031,-16.05665 -30.70031,-32.75555 0,-16.69892 9.8909,-33.14093 30.57186,-33.14093 12.58841,0 22.47931,6.03731 27.36053,18.62571 l -14.64366,5.7804 c -1.6699,-6.67957 -6.42266,-10.91852 -12.71687,-10.91852 -10.66162,0 -14.77211,9.63399 -14.77211,19.65334 0,10.01934 3.98204,19.26797 14.77211,19.26797 6.16575,0 11.04697,-4.1105 12.71687,-10.66161 l 14.00139,5.39503 c -4.23895,11.81769 -14.00139,18.75416 -26.58981,18.75416 z"
         fill="#000000"
         id="path21"
         style="stroke-width:2.56907" />
      <path
         d="m 482.78179,216.57916 c 0,1.92681 -0.12845,3.8536 -0.38536,5.90885 h -43.41718 c 0.64227,8.34946 5.7804,13.87295 15.79975,13.87295 5.65193,0 10.79007,-1.79834 15.15747,-6.80802 l 10.66161,9.37708 c -6.93647,7.70719 -15.28592,11.43233 -25.94753,11.43233 -21.83705,0 -31.08567,-15.67128 -31.08567,-32.6271 0,-16.57046 8.99171,-33.26938 30.05803,-33.26938 19.65334,0 29.15888,14.51521 29.15888,32.11329 z m -43.93099,-6.2942 h 29.15888 c -0.25691,-8.09255 -6.42266,-12.97377 -14.51522,-12.97377 -9.37707,0 -13.74449,6.67957 -14.64366,12.97377 z"
         fill="#000000"
         id="path22"
         style="stroke-width:2.56907" />
      <path
         d="m -189.46317,231.92863 -62.1679,61.90994 -37.40393,-37.40393 66.81115,-66.55321 12.63995,-12.64076 c 4.38529,7.99753 9.54445,15.22033 15.9934,21.41132 1.2898,1.28984 2.57958,2.57962 4.12733,3.86939 z"
         style="fill:#ffffff;fill-opacity:1;stroke-width:9.74962"
         id="path1-2" />
      <path
         d="m -189.52286,39.301624 -62.16791,-61.909929 -37.40394,37.403923 66.81115,66.55319 12.63995,12.640765 c 4.3853,-7.997542 9.54447,-15.22034 15.99342,-21.411313 1.28978,-1.289856 2.57956,-2.579624 4.12733,-3.869405 z"
         style="fill:#ffffff;fill-opacity:1;stroke-width:9.74962"
         id="path1-2-0" />
    </g>
    <path
       d="m -102.91874,309.40929 v -13.93767 h 29.643026 c -1.359774,4.55527 -1.359774,9.38241 0,13.93767 z"
       style="fill:#ffffff;stroke-width:2.56965"
       id="path1-8" />
  </g>
</svg>
