<?xml version="1.0" encoding="UTF-8" standalone="no"?>
<!-- Created with Inkscape (http://www.inkscape.org/) -->

<svg
   width="409.15445"
   height="292.81046"
   viewBox="0 0 108.25544 77.472766"
   version="1.1"
   id="svg1"
   sodipodi:docname="logo.svg"
   inkscape:version="1.4 (86a8ad7, 2024-10-11)"
   inkscape:export-filename="logo.png"
   inkscape:export-xdpi="96"
   inkscape:export-ydpi="96"
   xmlns:inkscape="http://www.inkscape.org/namespaces/inkscape"
   xmlns:sodipodi="http://sodipodi.sourceforge.net/DTD/sodipodi-0.dtd"
   xmlns="http://www.w3.org/2000/svg"
   xmlns:svg="http://www.w3.org/2000/svg">
  <sodipodi:namedview
     id="namedview1"
     pagecolor="#ffffff"
     bordercolor="#000000"
     borderopacity="0.25"
     inkscape:showpageshadow="2"
     inkscape:pageopacity="0.0"
     inkscape:pagecheckerboard="0"
     inkscape:deskcolor="#d1d1d1"
     inkscape:document-units="mm"
     inkscape:zoom="1.1807362"
     inkscape:cx="448.02557"
     inkscape:cy="130.85057"
     inkscape:window-width="1920"
     inkscape:window-height="1017"
     inkscape:window-x="-8"
     inkscape:window-y="-8"
     inkscape:window-maximized="1"
     inkscape:current-layer="g3" />
  <defs
     id="defs1">
    <clipPath
       clipPathUnits="userSpaceOnUse"
       id="clipPath9">
      <g
         inkscape:label="Clip"
         id="use9"
         style="fill:#0690b6;fill-opacity:1" />
    </clipPath>
  </defs>
  <g
     inkscape:label="Στρώση 1"
     inkscape:groupmode="layer"
     id="layer1"
     transform="translate(-23.292532,-110.52899)">
    <g
       id="g31"
       transform="matrix(0.80430977,0,0,0.80430977,4.2011444,22.729471)">
      <path
         style="font-size:87.4638px;font-family:STHupo;-inkscape-font-specification:STHupo;fill:#0690b6;fill-opacity:1;stroke-width:8.62618"
         d="m 81.369915,129.15082 -8.533598,-3.11093 -12.26027,0.95328 0.161012,-17.5851 h 26.885238 c 12.296345,0 21.987533,3.05053 29.073563,9.15159 7.08604,6.10105 10.62906,14.29292 10.62906,24.5756 0,10.35123 -3.40408,18.81731 -10.21222,25.39822 -6.80815,6.51237 -15.56149,9.76855 -26.260008,9.76855 -0.416825,0 -2.466216,-0.0685 -6.148174,-0.20566 v -20.15404 h 3.334604 c 12.087938,0 18.131908,-4.93569 18.131908,-14.80707 0,-9.32296 -5.93977,-13.98444 -17.81929,-13.98444 z"
         id="text1-4"
         aria-label="D"
         sodipodi:nodetypes="ccccssscsccsssc" />
      <g
         id="g3"
         style="fill:#424242;fill-opacity:1;stroke:#ffffff;stroke-width:0.4;stroke-dasharray:none;stroke-opacity:1"
         transform="matrix(1.1914226,0,0,1.1756497,-3.2568751,-1.7703826)">
        <path
           style="font-size:87.4638px;font-family:STHupo;-inkscape-font-specification:STHupo;fill:#424242;fill-opacity:1;stroke:#ffffff;stroke-width:0.4;stroke-dasharray:none;stroke-opacity:1"
           d="m 53.468637,94.557788 q 8.221597,0 15.306165,4.110799 7.084568,4.023333 11.195366,11.107903 4.110799,6.9971 4.110799,15.13124 0,8.13413 -4.110799,15.2187 -4.110798,6.9971 -11.195366,11.1079 -7.084568,4.02333 -15.306165,4.02333 -8.221597,0 -15.306164,-4.02333 -7.084568,-4.1108 -11.195367,-11.1079 -4.110798,-7.08457 -4.110798,-15.2187 0,-8.13414 4.110798,-15.13124 4.110799,-7.08457 11.195367,-11.107903 7.084567,-4.110799 15.306164,-4.110799 z m -0.08746,43.731902 q 5.597683,0 9.533554,-3.93587 3.935871,-3.93587 3.935871,-9.44609 0,-5.51022 -4.023335,-9.44609 -3.935871,-4.02334 -9.44609,-4.02334 -5.51022,0 -9.533554,4.02334 -3.935871,3.93587 -3.935871,9.44609 0,5.51022 3.935871,9.44609 3.93587,3.93587 9.533554,3.93587 z"
           id="text1"
           aria-label="O" />
        <g
           id="rect1">
          <path
             style="stroke:none"
             d="m 48.468383,120.3129 h 10.000511 c 2.545535,0 4.594829,2.04929 4.594829,4.59483 0,2.54553 -2.049294,4.59482 -4.594829,4.59482 H 48.468383 c -2.545535,0 -4.594829,-2.04929 -4.594829,-4.59482 0,-2.54554 2.049294,-4.59483 4.594829,-4.59483 z"
             id="path2"
             sodipodi:nodetypes="sssssss" />
          <path
             style="fill:#ffffff;stroke:none"
             d="m 48.46875,120.11328 c -2.652876,0 -4.794922,2.14205 -4.794922,4.79492 0,2.65288 2.142046,4.79492 4.794922,4.79492 h 10 c 2.652876,0 4.794922,-2.14204 4.794922,-4.79492 0,-2.65287 -2.142046,-4.79492 -4.794922,-4.79492 z m 0,0.40039 h 0.214717 l 2.348023,-0.0117 0.464831,-0.001 5.203405,-0.0124 1.581879,0.0253 h 0.187145 c 2.438195,0 4.394531,1.95634 4.394531,4.39453 0,2.4382 -1.956336,4.39453 -4.394531,4.39453 h -10 c -2.438195,0 -4.394531,-1.95633 -4.394531,-4.39453 0,-2.43819 1.956336,-4.39453 4.394531,-4.39453 z"
             id="path3"
             sodipodi:nodetypes="sssssssscccccsssssss" />
        </g>
      </g>
      <path
         d="m 158.33058,110.75101 v 19.19003 c -1.49335,-0.53585 -2.51154,-0.80377 -3.05458,-0.80377 -1.56123,0 -2.91882,0.50236 -4.07277,1.50706 -1.15395,0.93774 -1.73094,2.27737 -1.73094,4.01887 0,1.60754 0.57699,3.38253 1.73094,5.32497 l 1.52729,2.61226 c 2.78305,4.82262 4.17458,9.54479 4.17458,14.16646 0,5.96132 -2.34184,11.18583 -7.02553,15.67355 -4.61581,4.48773 -10.38557,6.73158 -17.30928,6.73158 -3.46187,0 -13.25562,-0.86101 -21.86705,-9.32373 l 12.29604,-11.97621 c 1.83274,1.13867 3.66548,1.70802 5.49824,1.70802 1.69698,0 3.08852,-0.46888 4.17458,-1.40661 1.08608,-1.00471 1.62912,-2.27735 1.62912,-3.81791 0,-0.73679 -0.95031,-2.74622 -2.85095,-6.02827 -2.98669,-5.2915 -4.48004,-10.54951 -4.48004,-15.77401 0,-6.29621 2.27396,-11.72167 6.82189,-16.27638 4.54794,-4.5547 9.9783,-6.83205 16.2911,-6.83205 2.85095,0 5.60005,0.43538 8.24736,1.30614 z"
         id="text9"
         style="font-size:85.4603px;line-height:1.15;font-family:STHupo;-inkscape-font-specification:STHupo;fill:#0690b6;stroke-width:0"
         aria-label="S"
         sodipodi:nodetypes="ccscsccscsccscscsssc" />
      <g
         id="g9"
         transform="matrix(1.0008347,0,0,0.98758503,6.8674337,19.524175)">
        <g
           id="g1"
           transform="translate(0.67152893,-0.68053831)">
          <path
             d="m 25.813382,173.43777 h -4.560716 v -11.0857 H 17.21124 v -3.97369 h 12.62099 v 3.97369 h -4.018848 z"
             id="text30"
             style="-inkscape-font-specification:'Proxima Nova Alt Heavy';fill:#424242;stroke-width:0"
             aria-label="T" />
          <path
             d="m 42.837027,173.43777 h -4.064004 v -6.07343 q 0,-1.51271 -1.580446,-1.51271 -0.970846,0 -1.738491,0.85795 v 6.72819 h -4.064004 v -15.05939 h 4.064004 v 5.39609 q 1.33209,-1.51271 3.747915,-1.51271 1.806224,0 2.709336,0.94827 0.92569,0.92569 0.92569,2.4384 z"
             id="text29"
             style="-inkscape-font-specification:'Proxima Nova Alt Heavy';fill:#424242;stroke-width:0"
             aria-label="h" />
          <path
             d="m 50.423168,173.7087 q -2.619025,0 -4.357516,-1.55787 -1.715913,-1.55786 -1.715913,-4.17689 0,-2.41582 1.670758,-4.064 1.670757,-1.64818 4.267204,-1.64818 2.46098,0 4.064004,1.67075 1.603024,1.64818 1.603024,4.47041 v 0.83538 H 48.54921 q 0.180623,0.56444 0.790223,0.97084 0.609601,0.4064 1.557869,0.4064 0.519289,0 1.309512,-0.22577 0.812801,-0.22578 1.196623,-0.54187 l 1.670758,2.50613 q -0.767645,0.65476 -2.05458,1.01601 -1.286935,0.33866 -2.596447,0.33866 z m 1.670757,-7.04427 q -0.316089,-1.30951 -1.806224,-1.30951 -1.422401,0 -1.783646,1.30951 z"
             id="text28"
             style="-inkscape-font-specification:'Proxima Nova Alt Heavy';fill:#424242;stroke-width:0"
             aria-label="e" />
          <path
             d="m 61.779783,173.7087 q -1.490135,0 -2.980269,-0.45155 -1.490135,-0.47414 -2.37067,-1.2192 l 1.625602,-2.73192 q 0.654756,0.51929 1.85138,0.94827 1.196623,0.42898 2.077157,0.42898 1.083735,0 1.083735,-0.47414 0,-0.27093 -0.632179,-0.38382 -0.632178,-0.13547 -1.557868,-0.27093 -0.903112,-0.13547 -1.828802,-0.42898 -0.903112,-0.29351 -1.53529,-1.10631 -0.632179,-0.8128 -0.632179,-2.07716 0,-1.55787 1.286935,-2.61903 1.309513,-1.06115 3.58987,-1.06115 2.596448,0 4.718761,1.39982 l -1.490135,2.6416 q -0.564445,-0.45155 -1.444979,-0.79022 -0.857957,-0.33867 -1.761069,-0.33867 -1.016001,0 -1.016001,0.47414 0,0.22578 0.632179,0.33866 0.632178,0.11289 1.53529,0.27094 0.92569,0.15804 1.828802,0.47413 0.92569,0.31609 1.557868,1.15147 0.632179,0.8128 0.632179,2.07716 0,1.64818 -1.399824,2.70933 -1.399824,1.03858 -3.770493,1.03858 z"
             id="text27"
             style="-inkscape-font-specification:'Proxima Nova Alt Heavy';fill:#424242;stroke-width:0"
             aria-label="s" />
          <path
             d="m 72.842901,173.7087 q -1.490135,0 -2.980269,-0.45155 -1.490135,-0.47414 -2.37067,-1.2192 l 1.625602,-2.73192 q 0.654756,0.51929 1.85138,0.94827 1.196623,0.42898 2.077157,0.42898 1.083735,0 1.083735,-0.47414 0,-0.27093 -0.632179,-0.38382 -0.632178,-0.13547 -1.557868,-0.27093 -0.903112,-0.13547 -1.828802,-0.42898 -0.903112,-0.29351 -1.53529,-1.10631 -0.632179,-0.8128 -0.632179,-2.07716 0,-1.55787 1.286935,-2.61903 1.309513,-1.06115 3.58987,-1.06115 2.596448,0 4.718761,1.39982 l -1.490135,2.6416 q -0.564445,-0.45155 -1.444979,-0.79022 -0.857957,-0.33867 -1.761069,-0.33867 -1.016001,0 -1.016001,0.47414 0,0.22578 0.632179,0.33866 0.632178,0.11289 1.53529,0.27094 0.92569,0.15804 1.828802,0.47413 0.92569,0.31609 1.557868,1.15147 0.632179,0.8128 0.632179,2.07716 0,1.64818 -1.399824,2.70933 -1.399824,1.03858 -3.770493,1.03858 z"
             id="text26"
             style="-inkscape-font-specification:'Proxima Nova Alt Heavy';fill:#424242;stroke-width:0"
             aria-label="s" />
          <path
             d="m 90.679359,173.43777 h -4.064004 v -1.15147 q -1.264357,1.4224 -3.070581,1.4224 -2.077157,0 -3.454403,-1.51271 -1.354668,-1.51271 -1.354668,-4.22205 0,-2.6416 1.354668,-4.17689 1.377246,-1.53529 3.454403,-1.53529 1.873958,0 3.048003,1.4224 v -1.15147 h 4.086582 z m -5.757339,-3.31894 q 1.083735,0 1.693335,-0.74507 v -2.77706 q -0.587023,-0.72249 -1.693335,-0.72249 -0.857956,0 -1.444979,0.56444 -0.587023,0.56445 -0.587023,1.53529 0,0.99342 0.587023,1.58045 0.587023,0.56444 1.444979,0.56444 z"
             id="text25"
             style="-inkscape-font-specification:'Proxima Nova Alt Heavy';fill:#424242;stroke-width:0"
             aria-label="a" />
          <path
             d="m 96.685068,173.7087 q -1.828802,0 -2.799647,-0.85795 -0.948268,-0.88054 -0.948268,-2.57387 v -11.8985 h 4.064004 v 10.72445 q 0,0.42898 0.248356,0.72249 0.248356,0.29351 0.654756,0.29351 0.6096,0 0.8128,-0.2032 l 0.72249,3.07058 q -0.8128,0.72249 -2.754491,0.72249 z"
             id="text24"
             style="-inkscape-font-specification:'Proxima Nova Alt Heavy';fill:#424242;stroke-width:0"
             aria-label="l" />
          <path
             d="m 110.18657,172.03795 q -1.67076,1.67075 -4.4704,1.67075 -2.79965,0 -4.47041,-1.67075 -1.648181,-1.67076 -1.648181,-4.06401 0,-2.39325 1.648181,-4.04143 1.67076,-1.67075 4.47041,-1.67075 2.79964,0 4.4704,1.67075 1.67076,1.64818 1.67076,4.04143 0,2.39325 -1.67076,4.06401 z m -4.4704,-1.91912 q 0.92569,0 1.44497,-0.58702 0.51929,-0.6096 0.51929,-1.55787 0,-0.92569 -0.51929,-1.51271 -0.51928,-0.6096 -1.44497,-0.6096 -0.90312,0 -1.42241,0.6096 -0.51929,0.58702 -0.51929,1.51271 0,0.94827 0.51929,1.55787 0.51929,0.58702 1.42241,0.58702 z"
             id="text23"
             style="-inkscape-font-specification:'Proxima Nova Alt Heavy';fill:#424242;stroke-width:0"
             aria-label="o" />
          <path
             d="m 124.81698,173.43777 h -4.06401 v -6.02827 q 0,-1.55787 -1.58044,-1.55787 -0.97085,0 -1.7385,0.85795 v 6.72819 h -4.064 v -10.90508 h 4.064 v 1.24178 q 1.33209,-1.51271 3.74792,-1.51271 1.80622,0 2.70934,0.97084 0.92569,0.94827 0.92569,2.46098 z"
             id="text22"
             style="-inkscape-font-specification:'Proxima Nova Alt Heavy';fill:#424242;stroke-width:0"
             aria-label="n" />
          <path
             d="m 130.7098,161.08771 c -0.43651,0.43651 -0.97085,0.65476 -1.60302,0.65476 -0.63218,0 -1.17405,-0.21825 -1.62561,-0.65476 -0.4365,-0.45155 -0.65475,-0.99342 -0.65475,-1.6256 0,-0.63218 0.21825,-1.16652 0.65475,-1.60302 0.45156,-0.45156 0.99343,-0.67734 1.62561,-0.67734 0.63217,0 1.16651,0.22578 1.60302,0.67734 0.45155,0.4365 0.67733,0.97084 0.67733,1.60302 0,0.63218 -0.22578,1.17405 -0.67733,1.6256 z m 0.42898,12.35006 h -4.06401 v -10.90508 h 4.06401 z"
             id="text21"
             style="-inkscape-font-specification:'Proxima Nova Alt Heavy';fill:#424242;stroke-width:0"
             aria-label="i"
             sodipodi:nodetypes="sscssscssccccc" />
          <path
             d="m 145.11445,173.43777 h -4.98969 l -1.87396,-3.52214 -0.79022,1.06116 v 2.46098 h -4.06401 v -15.05939 h 4.06401 v 8.03769 l 2.50613,-3.88338 h 4.89939 l -3.74792,4.96712 z"
             id="text20"
             style="-inkscape-font-specification:'Proxima Nova Alt Heavy';fill:#424242;stroke-width:0"
             aria-label="k" />
          <path
             d="m 149.6074,161.08771 q -0.65475,0.65476 -1.60302,0.65476 -0.94827,0 -1.6256,-0.65476 -0.65476,-0.67733 -0.65476,-1.6256 0,-0.94827 0.65476,-1.60302 0.67733,-0.67734 1.6256,-0.67734 0.94827,0 1.60302,0.67734 0.67734,0.65475 0.67734,1.60302 0,0.94827 -0.67734,1.6256 z m 0.42898,12.35006 h -4.064 v -10.90508 h 4.064 z"
             id="text19"
             style="-inkscape-font-specification:'Proxima Nova Alt Heavy';fill:#424242;stroke-width:0"
             aria-label="i" />
        </g>
        <g
           id="g30"
           style="stroke:#ffffff;stroke-width:0.535244;stroke-dasharray:none;stroke-opacity:1"
           transform="translate(-1.2278417,-7.4175239)">
          <path
             d="m 29.829104,191.29248 h -6.750762 v -15.05939 h 6.728184 q 3.657604,0 5.96054,2.00942 2.302935,1.98685 2.302935,5.50899 0,3.52213 -2.302935,5.53156 -2.302936,2.00942 -5.937962,2.00942 z m -0.02258,-3.97369 q 1.64818,0 2.641603,-1.03858 0.993423,-1.03858 0.993423,-2.52871 0,-1.60303 -0.92569,-2.57387 -0.925689,-0.97085 -2.686758,-0.97085 h -2.190047 v 7.11201 z"
             id="text18"
             style="-inkscape-font-specification:'Proxima Nova Alt Heavy';fill:#0690b6;stroke:#ffffff;stroke-width:0.535244;stroke-dasharray:none;stroke-opacity:1"
             aria-label="D" />
          <path
             d="m 51.597632,191.29248 h -4.064004 v -1.15147 q -1.264357,1.4224 -3.070581,1.4224 -2.077157,0 -3.454403,-1.51271 -1.354668,-1.51271 -1.354668,-4.22205 0,-2.6416 1.354668,-4.17689 1.377246,-1.53529 3.454403,-1.53529 1.873958,0 3.048003,1.4224 v -1.15147 h 4.086582 z m -5.757339,-3.31894 q 1.083735,0 1.693335,-0.74506 v -2.77707 q -0.587023,-0.72249 -1.693335,-0.72249 -0.857956,0 -1.444979,0.56444 -0.587023,0.56445 -0.587023,1.53529 0,0.99343 0.587023,1.58045 0.587023,0.56444 1.444979,0.56444 z"
             id="text17"
             style="-inkscape-font-specification:'Proxima Nova Alt Heavy';fill:#0690b6;stroke:#ffffff;stroke-width:0.535244;stroke-dasharray:none;stroke-opacity:1"
             aria-label="a" />
          <path
             d="m 59.23247,191.56341 q -1.828802,0 -2.799647,-0.85795 -0.948268,-0.88054 -0.948268,-2.57387 v -4.22205 h -1.806224 v -3.52214 h 1.806224 v -2.98027 h 4.064004 v 2.98027 h 2.212625 v 3.52214 h -2.212625 v 3.048 q 0,0.42898 0.248356,0.72249 0.248356,0.29351 0.654756,0.29351 0.609601,0 0.812801,-0.2032 l 0.72249,3.07058 q -0.812801,0.72249 -2.754492,0.72249 z"
             id="text16"
             style="-inkscape-font-specification:'Proxima Nova Alt Heavy';fill:#0690b6;stroke:#ffffff;stroke-width:0.535244;stroke-dasharray:none;stroke-opacity:1"
             aria-label="t" />
          <path
             d="m 75.266238,191.29248 h -4.064004 v -1.15147 q -1.264357,1.4224 -3.070581,1.4224 -2.077158,0 -3.454403,-1.51271 -1.354669,-1.51271 -1.354669,-4.22205 0,-2.6416 1.354669,-4.17689 1.377245,-1.53529 3.454403,-1.53529 1.873957,0 3.048003,1.4224 v -1.15147 h 4.086582 z m -5.757339,-3.31894 q 1.083734,0 1.693335,-0.74506 v -2.77707 q -0.587023,-0.72249 -1.693335,-0.72249 -0.857957,0 -1.444979,0.56444 -0.587023,0.56445 -0.587023,1.53529 0,0.99343 0.587023,1.58045 0.587022,0.56444 1.444979,0.56444 z"
             id="text15"
             style="-inkscape-font-specification:'Proxima Nova Alt Heavy';fill:#0690b6;stroke:#ffffff;stroke-width:0.535244;stroke-dasharray:none;stroke-opacity:1"
             aria-label="a" />
          <path
             d="m 91.600566,191.56341 q -4.334938,0 -6.999118,-2.39324 l 2.370669,-3.38667 q 2.032002,1.94169 4.854227,1.94169 1.670757,0 1.670757,-0.8128 0,-0.38383 -0.880534,-0.58703 -0.857956,-0.2032 -2.099736,-0.42897 -1.219201,-0.22578 -2.46098,-0.65476 -1.219201,-0.42898 -2.099735,-1.51271 -0.857957,-1.08374 -0.857957,-2.73192 0,-2.05458 1.64818,-3.52213 1.670757,-1.46756 4.605871,-1.46756 3.815648,0 6.389518,2.09973 l -2.438403,3.22863 q -1.964268,-1.49013 -4.425249,-1.49013 -1.151468,0 -1.151468,0.67733 0,0.31609 0.609601,0.54187 0.632179,0.22577 1.557868,0.36124 0.92569,0.11289 2.009425,0.45156 1.106312,0.31609 2.032002,0.76764 0.92569,0.45156 1.53529,1.4224 0.632179,0.94827 0.632179,2.25778 0,2.48356 -1.738491,3.86081 -1.715913,1.37724 -4.763916,1.37724 z"
             id="text14"
             style="-inkscape-font-specification:'Proxima Nova Alt Heavy';fill:#0690b6;stroke:#ffffff;stroke-width:0.535244;stroke-dasharray:none;stroke-opacity:1"
             aria-label="S" />
          <path
             d="m 107.43115,191.56341 q -1.82881,0 -3.07058,-1.4224 v 5.30579 h -4.06401 v -15.0594 h 4.06401 v 1.15147 q 1.19662,-1.4224 3.07058,-1.4224 2.09973,0 3.43182,1.51271 1.35467,1.49014 1.35467,4.19947 0,2.73192 -1.35467,4.24463 -1.33209,1.49013 -3.43182,1.49013 z m -1.39983,-3.58987 q 0.85796,0 1.44498,-0.56444 0.58702,-0.58702 0.58702,-1.58045 0,-0.97084 -0.58702,-1.53529 -0.58702,-0.58702 -1.44498,-0.58702 -0.42898,0 -0.92569,0.2032 -0.47413,0.2032 -0.74506,0.54187 v 2.77707 q 0.24835,0.31609 0.74506,0.54186 0.51929,0.2032 0.92569,0.2032 z"
             id="text13"
             style="-inkscape-font-specification:'Proxima Nova Alt Heavy';fill:#0690b6;stroke:#ffffff;stroke-width:0.535244;stroke-dasharray:none;stroke-opacity:1"
             aria-label="p" />
          <path
             d="m 125.72268,191.29248 h -4.064 v -1.15147 q -1.26436,1.4224 -3.07058,1.4224 -2.07716,0 -3.45441,-1.51271 -1.35466,-1.51271 -1.35466,-4.22205 0,-2.6416 1.35466,-4.17689 1.37725,-1.53529 3.45441,-1.53529 1.87395,0 3.048,1.4224 v -1.15147 h 4.08658 z m -5.75734,-3.31894 q 1.08374,0 1.69334,-0.74506 v -2.77707 q -0.58703,-0.72249 -1.69334,-0.72249 -0.85795,0 -1.44498,0.56444 -0.58702,0.56445 -0.58702,1.53529 0,0.99343 0.58702,1.58045 0.58703,0.56444 1.44498,0.56444 z"
             id="text12"
             style="-inkscape-font-specification:'Proxima Nova Alt Heavy';fill:#0690b6;stroke:#ffffff;stroke-width:0.535244;stroke-dasharray:none;stroke-opacity:1"
             aria-label="a" />
          <path
             d="m 134.14775,191.56341 q -2.64161,0 -4.3801,-1.58044 -1.73849,-1.58045 -1.73849,-4.15432 0,-2.55129 1.73849,-4.13173 1.73849,-1.58045 4.3801,-1.58045 1.69333,0 2.88996,0.63218 1.19662,0.6096 1.73849,1.4224 l -2.61903,2.46098 q -0.6096,-0.92569 -1.8288,-0.92569 -0.90311,0 -1.53529,0.56444 -0.6096,0.54187 -0.6096,1.55787 0,1.016 0.6096,1.58045 0.63218,0.56444 1.53529,0.56444 1.17404,0 1.8288,-0.94826 l 2.61903,2.48355 q -0.54187,0.81281 -1.73849,1.44498 -1.19663,0.6096 -2.88996,0.6096 z"
             id="text11"
             style="-inkscape-font-specification:'Proxima Nova Alt Heavy';fill:#0690b6;stroke:#ffffff;stroke-width:0.535244;stroke-dasharray:none;stroke-opacity:1"
             aria-label="c" />
          <path
             d="m 146.23041,191.56341 q -2.61902,0 -4.35751,-1.55786 -1.71591,-1.55787 -1.71591,-4.1769 0,-2.41582 1.67075,-4.064 1.67076,-1.64818 4.26721,-1.64818 2.46098,0 4.064,1.67076 1.60303,1.64818 1.60303,4.4704 v 0.83538 h -7.40552 q 0.18062,0.56444 0.79022,0.97084 0.6096,0.40641 1.55787,0.40641 0.51929,0 1.30951,-0.22578 0.8128,-0.22578 1.19662,-0.54187 l 1.67076,2.50614 q -0.76764,0.65475 -2.05458,1.016 -1.28693,0.33866 -2.59645,0.33866 z m 1.67076,-7.04427 q -0.31609,-1.30951 -1.80622,-1.30951 -1.4224,0 -1.78365,1.30951 z"
             id="text10"
             style="-inkscape-font-specification:'Proxima Nova Alt Heavy';fill:#0690b6;stroke:#ffffff;stroke-width:0.535244;stroke-dasharray:none;stroke-opacity:1"
             aria-label="e" />
        </g>
      </g>
    </g>
  </g>
</svg>
