<?xml version="1.0" encoding="UTF-8"?>
<svg xmlns="http://www.w3.org/2000/svg" version="1.1" viewBox="0 0 118.39 52.03">
  <defs>
    <style>
      .cls-1 {
        fill: #ffcb05;
      }

      .cls-1, .cls-2 {
        fill-rule: evenodd;
      }

      .cls-3, .cls-2 {
        fill: #00386c;
      }
    </style>
  </defs>
  <!-- Generator: Adobe Illustrator 28.7.0, SVG Export Plug-In . SVG Version: 1.2.0 Build 136)  -->
  <g>
    <g id="Layer_1">
      <g>
        <polygon class="cls-2" points="8.81 11.66 7.28 8.37 7.28 4.26 10.73 4.26 10.73 0 19.72 0 19.72 4.26 23.64 4.26 23.64 0 32.81 0 32.81 4.26 36.72 4.26 36.72 0 45.72 0 45.72 4.26 49.17 4.26 49.17 8.37 47.64 11.66 47.64 20.65 46.31 19.9 46.31 11.36 47.84 8.08 47.84 5.59 44.39 5.59 44.39 1.33 38.06 1.33 38.06 5.59 31.47 5.59 31.47 1.33 24.97 1.33 24.97 5.59 18.39 5.59 18.39 1.33 12.06 1.33 12.06 5.59 8.61 5.59 8.61 8.08 10.14 11.36 10.14 19.9 8.81 20.65 8.81 11.66"/>
        <path class="cls-2" d="M51.85,16.03h-10.94c-2.53,0-4.6,2.21-4.6,4.92v2.07c0,2.71,2.07,4.92,4.6,4.92h5.4v-4.66h-3.79c-.51,0-.92-.45-.92-.99s.41-.99.92-.99h6.95c.94,0,1.7.82,1.7,1.82v4.81c0,1-.77,1.83-1.7,1.83h-12.87c-.94,0-1.71-.82-1.71-1.83v-10.09c0-.99-.74-1.8-1.66-1.82h0s-5.68,0-5.68,0c-.55,0-1.04.28-1.35.72l-9.11,12.36c-.31.41-.78.67-1.31.67h-7.78c-.94,0-1.7-.82-1.7-1.83v-4.81c0-1.01.77-1.82,1.7-1.82h6.42c.94,0,1.7.82,1.7,1.82v4.08l5.24-6.89c-.29-2.41-2.23-4.28-4.56-4.28H5.6c-2.53,0-4.6,2.21-4.6,4.92v9.17c0,2.71,2.06,4.92,4.6,4.92h11.2c1.42,0,2.7-.7,3.55-1.79l8.59-11.95h.66v8.82c0,2.71,2.07,4.92,4.6,4.92h17.65c2.53,0,4.6-2.21,4.6-4.92v-9.17c0-2.71-2.06-4.92-4.6-4.92"/>
        <path class="cls-1" d="M50.84,14.96h-10.94c-2.53,0-4.6,2.21-4.6,4.92v2.07c0,2.71,2.07,4.92,4.6,4.92h5.4v-4.66h-3.79c-.51,0-.92-.45-.92-.99s.41-.99.92-.99h6.95c.94,0,1.71.82,1.71,1.82v4.81c0,1.01-.77,1.83-1.71,1.83h-12.87c-.94,0-1.71-.82-1.71-1.83v-10.09c0-.99-.74-1.8-1.66-1.82h0s-5.69,0-5.69,0c-.55,0-1.04.28-1.35.72l-9.11,12.36c-.31.41-.79.67-1.31.67h-7.78c-.94,0-1.7-.82-1.7-1.83v-4.81c0-1,.76-1.82,1.7-1.82h6.43c.94,0,1.7.82,1.7,1.82v4.08l5.24-6.9c-.29-2.41-2.23-4.28-4.56-4.28H4.6c-2.53,0-4.6,2.21-4.6,4.92v9.17c0,2.71,2.06,4.92,4.6,4.92h11.2c1.42,0,2.7-.7,3.55-1.79l8.59-11.95h.66v8.82c0,2.71,2.07,4.92,4.6,4.92h17.65c2.53,0,4.6-2.21,4.6-4.92v-9.17c0-2.71-2.07-4.92-4.6-4.92"/>
        <path class="cls-3" d="M43.72,39.64c-2.62,0-3.95-.58-5.25-1.13-1.27-.56-2.44-1.08-4.89-1.08s-3.58.51-4.83,1.06c-1.31.57-2.65,1.16-5.28,1.16s-3.96-.58-5.25-1.14c-1.26-.56-2.43-1.08-4.88-1.08s-3.61.52-4.84,1.07c-1.23.53-2.46,1.06-4.69,1.13.61.88,1.28,1.72,1.98,2.53.89-.2,1.57-.5,2.28-.81,1.29-.57,2.62-1.15,5.27-1.15s3.98.58,5.27,1.15c1.26.55,2.43,1.06,4.85,1.06s3.6-.52,4.84-1.06c1.3-.56,2.64-1.15,5.26-1.15s3.99.58,5.28,1.15c1.25.55,2.44,1.06,4.86,1.06s3.6-.52,4.85-1.06c.6-.26,1.22-.53,1.97-.74.76-1,1.45-2.04,2.08-3.13-1.64.14-2.61.57-3.62,1.02-1.33.57-2.66,1.15-5.27,1.15"/>
        <path class="cls-3" d="M33.59,45.08c-2.41,0-3.59.51-4.83,1.06-1.3.57-2.64,1.15-5.28,1.15s-3.98-.58-5.27-1.15c-1.24-.55-2.42-1.06-4.85-1.06-1.77,0-2.87.27-3.82.63.91.72,1.85,1.39,2.84,2.01.31-.02.63-.03.98-.03,2.63,0,3.97.58,5.26,1.14,1.26.55,2.44,1.07,4.87,1.07s3.6-.52,4.84-1.06c1.32-.57,2.65-1.15,5.26-1.15s3.98.58,5.27,1.15c.34.15.66.29,1.01.42,1.22-.58,2.39-1.24,3.51-1.98-2.42-.05-3.69-.6-4.93-1.14-1.24-.55-2.42-1.06-4.86-1.06"/>
        <path class="cls-3" d="M43.72,43.46c-2.66,0-4.05-.61-5.28-1.15-1.25-.55-2.42-1.06-4.86-1.06s-3.58.51-4.82,1.06c-1.3.57-2.63,1.15-5.28,1.15s-4.06-.61-5.28-1.15c-1.25-.55-2.42-1.06-4.85-1.06s-3.6.52-4.84,1.06c-.58.26-1.18.52-1.9.72.63.67,1.3,1.3,2,1.91,1.14-.48,2.45-.92,4.74-.92,2.63,0,3.97.58,5.26,1.15,1.26.55,2.44,1.07,4.87,1.07s3.6-.52,4.84-1.06c1.32-.57,2.65-1.15,5.26-1.15s3.98.58,5.27,1.15c1.26.55,2.44,1.06,4.86,1.06.45,0,.85-.02,1.22-.05,1.55-1.17,2.98-2.51,4.27-3.96-.07.03-.14.06-.22.09-1.22.54-2.62,1.15-5.27,1.15"/>
        <path class="cls-3" d="M33.59,48.75c-2.41,0-3.59.51-4.83,1.06-1.3.57-2.64,1.15-5.28,1.15s-3.98-.58-5.27-1.15c-1.08-.48-2.12-.93-3.97-1.03,3.99,2.08,8.51,3.26,13.3,3.26,3.89,0,7.6-.78,11-2.18-.03-.01-.06-.03-.09-.04-1.24-.54-2.42-1.06-4.86-1.06"/>
        <polygon class="cls-3" points="64.78 18.96 64.78 26.94 62.85 26.94 62.85 18.96 60.27 18.96 60.27 17.22 67.35 17.22 67.35 18.96 64.78 18.96"/>
        <path class="cls-3" d="M79.39,17.22c.48,0,.89.09,1.24.27.35.18.64.42.87.71.23.29.4.62.51.98.11.36.16.72.16,1.06s-.06.72-.19,1.07c-.13.36-.31.68-.55.97-.24.29-.54.53-.89.71-.35.18-.76.28-1.21.28h-2.36v3.65h-1.93v-9.72h4.35ZM76.98,21.55h1.98c.44,0,.78-.12,1-.37.22-.25.34-.55.34-.92s-.11-.69-.35-.94c-.23-.25-.56-.37-1-.37h-1.98v2.6Z"/>
        <path class="cls-3" d="M88.09,24.94h-3.39l-.63,2.01h-2.06l3.42-9.73h1.97l3.39,9.73h-2.1l-.59-2.01ZM85.22,23.32h2.34l-.38-1.24-.76-2.57h-.05l-.75,2.53-.39,1.28Z"/>
        <path class="cls-3" d="M102.76,24.07c0,.47-.09.89-.28,1.25-.19.36-.45.67-.78.9-.33.24-.73.42-1.18.54-.45.12-.94.18-1.47.18-.7,0-1.37-.1-1.99-.3-.62-.2-1.23-.55-1.82-1.04l1.09-1.41c.42.33.86.58,1.32.76.46.17.91.26,1.36.26.31,0,.57-.03.79-.09.21-.06.39-.15.52-.25.13-.11.23-.23.29-.37.06-.14.09-.28.09-.42,0-.22-.05-.39-.16-.54-.11-.14-.26-.26-.46-.36-.2-.1-.44-.19-.72-.27-.28-.08-.59-.17-.93-.26-.38-.09-.74-.21-1.08-.35-.34-.14-.65-.31-.91-.52-.26-.21-.47-.47-.63-.77-.16-.31-.23-.68-.23-1.11s.08-.81.24-1.17c.16-.36.38-.67.66-.93.28-.26.63-.46,1.04-.61.41-.15.86-.22,1.36-.22.59,0,1.18.05,1.78.17.59.12,1.17.37,1.72.73l-.85,1.55c-.45-.27-.88-.46-1.29-.57-.4-.1-.8-.15-1.2-.15-.19,0-.37.02-.56.07-.18.05-.35.12-.49.21-.15.09-.26.21-.35.35-.09.14-.13.32-.13.51s.05.37.15.5c.1.14.24.25.43.35.19.1.42.19.69.26.27.07.57.15.91.23,1.03.23,1.8.57,2.31,1.03.51.46.76,1.07.76,1.84"/>
        <path class="cls-3" d="M104.6,26.94c-.32,0-.59-.11-.8-.34-.21-.23-.32-.5-.32-.82,0-.3.11-.56.32-.77.21-.21.47-.32.78-.32s.59.11.8.32c.21.21.32.47.32.77s-.1.58-.3.81c-.2.23-.47.34-.8.34"/>
        <path class="cls-3" d="M112.6,24.94h-3.39l-.64,2.01h-2.06l3.42-9.73h1.98l3.39,9.73h-2.1l-.59-2.01ZM109.73,23.32h2.34l-.38-1.24-.76-2.57h-.06l-.75,2.53-.39,1.28Z"/>
        <path class="cls-3" d="M117.29,26.94c-.32,0-.59-.11-.8-.34-.21-.23-.32-.5-.32-.82,0-.3.1-.56.32-.77s.47-.32.78-.32.59.11.8.32c.21.21.32.47.32.77s-.1.58-.3.81c-.2.23-.47.34-.8.34"/>
        <rect class="cls-3" x="86.81" y="23.56" width=".22" height=".18"/>
        <path class="cls-3" d="M69.95,26.94v-4.38c0-.14.01-.31.06-.42.14-.35.45-.68.97-.68.72,0,1,.56,1,1.38v4.1h1.94v-4.32c0-1.88-.95-2.73-2.18-2.73-.36,0-.72.09-1.01.25-.31.16-.56.37-.76.64h-.03v-3.56h-1.94v9.72h1.94Z"/>
        <polygon class="cls-3" points="83.48 30.93 83.48 34.06 82.72 34.06 82.72 30.93 81.71 30.93 81.71 30.25 84.49 30.25 84.49 30.93 83.48 30.93"/>
        <polygon class="cls-3" points="87.07 34.06 87.07 32.46 85.66 32.46 85.66 34.06 84.9 34.06 84.9 30.25 85.66 30.25 85.66 31.78 87.07 31.78 87.07 30.25 87.84 30.25 87.84 34.06 87.07 34.06"/>
        <polygon class="cls-3" points="88.52 30.25 91.15 30.25 91.15 30.93 89.28 30.93 89.28 31.8 90.88 31.8 90.88 32.48 89.28 32.48 89.28 33.38 91.15 33.38 91.15 34.06 88.52 34.06 88.52 30.25"/>
        <path class="cls-3" d="M94.53,32.96c0,.18-.04.35-.11.49-.07.14-.18.26-.31.35-.13.09-.28.17-.46.21-.18.05-.37.07-.58.07-.28,0-.54-.04-.78-.12-.24-.08-.48-.21-.71-.41l.43-.55c.17.13.34.23.52.3.18.07.36.1.53.1.12,0,.22-.01.31-.04.09-.02.15-.06.2-.1.05-.04.09-.09.11-.14.02-.05.04-.11.04-.16,0-.08-.02-.16-.06-.21-.04-.05-.1-.1-.18-.14-.08-.04-.17-.07-.28-.1-.11-.03-.23-.07-.36-.1-.15-.04-.29-.08-.42-.14-.13-.05-.25-.12-.36-.2-.1-.08-.19-.18-.25-.3-.06-.12-.09-.26-.09-.43s.03-.32.09-.46c.06-.14.15-.26.26-.36.11-.1.25-.18.41-.24.16-.06.34-.09.53-.09.23,0,.47.02.7.07.23.05.46.14.68.29l-.33.61c-.18-.11-.34-.18-.5-.22-.16-.04-.32-.06-.47-.06-.07,0-.15,0-.22.03-.07.02-.14.05-.19.08-.06.04-.1.08-.14.14-.04.06-.05.12-.05.2s.02.14.06.2c.04.05.09.1.17.14.07.04.16.07.27.1.1.03.22.06.36.09.4.09.71.22.9.4.2.18.3.42.3.72"/>
        <path class="cls-3" d="M97.88,32.96c0,.18-.04.35-.11.49-.07.14-.18.26-.31.35-.13.09-.28.17-.46.21-.18.05-.37.07-.58.07-.28,0-.54-.04-.78-.12-.24-.08-.48-.21-.71-.41l.43-.55c.17.13.34.23.52.3.18.07.36.1.53.1.12,0,.23-.01.31-.04.08-.02.15-.06.21-.1.05-.04.09-.09.11-.14.02-.05.04-.11.04-.16,0-.08-.02-.16-.06-.21-.04-.05-.1-.1-.18-.14-.08-.04-.17-.07-.28-.1-.11-.03-.23-.07-.36-.1-.15-.04-.29-.08-.42-.14-.13-.05-.25-.12-.36-.2-.1-.08-.19-.18-.25-.3-.06-.12-.09-.26-.09-.43s.03-.32.09-.46c.06-.14.15-.26.26-.36.11-.1.25-.18.41-.24.16-.06.34-.09.53-.09.23,0,.46.02.7.07.23.05.46.14.68.29l-.33.61c-.18-.11-.35-.18-.5-.22-.16-.04-.32-.06-.47-.06-.07,0-.15,0-.22.03-.07.02-.14.05-.19.08-.06.04-.1.08-.14.14-.04.06-.05.12-.05.2s.02.14.06.2c.04.05.1.1.17.14.07.04.16.07.27.1.11.03.22.06.36.09.4.09.7.22.9.4.2.18.3.42.3.72"/>
        <path class="cls-3" d="M100.52,33.27h-1.33l-.25.79h-.81l1.34-3.81h.77l1.33,3.81h-.82l-.23-.79ZM99.39,32.64h.92l-.15-.49-.3-1.01h-.02l-.29.99-.15.5Z"/>
        <polygon class="cls-3" points="102 34.06 102 30.25 102.74 30.25 102.74 33.38 104.63 33.38 104.63 34.06 102 34.06"/>
        <path class="cls-3" d="M107.92,32.84c0,.21-.04.39-.12.54-.08.16-.18.29-.31.39-.13.11-.29.19-.47.24-.18.05-.37.08-.57.08s-.39-.03-.57-.08c-.18-.05-.34-.13-.47-.24-.13-.11-.24-.24-.31-.39-.08-.15-.12-.34-.12-.54v-1.4c0-.2.04-.38.12-.54.08-.15.19-.28.33-.39.14-.1.29-.18.47-.23.18-.05.36-.08.55-.08s.37.03.55.08c.18.06.33.14.47.24.14.1.24.24.33.39.08.16.12.34.12.54v1.38ZM107.16,31.6c0-.13-.02-.23-.06-.32-.04-.09-.09-.16-.16-.21-.07-.06-.14-.1-.22-.12-.08-.03-.17-.04-.26-.04s-.18.01-.26.04c-.09.03-.16.07-.23.12-.07.06-.12.13-.16.21-.04.09-.06.19-.06.32v1.11c0,.13.02.23.06.32.04.09.09.16.16.22.07.06.14.09.23.12.09.02.17.04.26.04s.17-.01.26-.04c.08-.02.16-.06.22-.12.07-.06.12-.13.16-.22.04-.09.06-.2.06-.32v-1.11Z"/>
        <polygon class="cls-3" points="109.35 31.66 109.35 34.06 108.59 34.06 108.59 30.25 109.27 30.25 110.16 31.55 110.88 32.66 110.91 32.66 110.91 30.25 111.66 30.25 111.66 34.06 110.97 34.06 110.01 32.62 109.38 31.66 109.35 31.66"/>
        <rect class="cls-3" x="112.46" y="30.25" width=".76" height="3.81"/>
        <path class="cls-3" d="M114.8,31.89c.11-.12.21-.24.32-.36.1-.13.2-.25.3-.37l.75-.91h.9l-1.27,1.54,1.36,2.27h-.89l-.96-1.68c-.09.1-.18.21-.27.31-.09.1-.18.2-.26.31v1.06h-.76v-3.81h.76v1.64h.03Z"/>
        <rect class="cls-3" x="117.64" y="30.25" width=".76" height="3.81"/>
        <path class="cls-3" d="M61.97,30.23c.19,0,.35.04.49.11.14.07.25.17.34.28.09.11.16.24.2.38.04.14.06.28.06.42s-.02.28-.07.42c-.05.14-.12.27-.22.38-.09.11-.21.21-.35.28-.14.07-.3.11-.47.11h-.92v1.43h-.76v-3.81h1.7ZM61.02,31.93h.77c.17,0,.3-.05.39-.14.09-.1.13-.22.13-.36s-.05-.27-.14-.37c-.09-.1-.22-.14-.39-.14h-.77v1.02Z"/>
        <path class="cls-3" d="M66.39,32.83c0,.21-.04.39-.12.54-.08.15-.18.29-.32.39-.13.11-.29.19-.47.24-.18.05-.37.08-.57.08s-.39-.03-.57-.08c-.18-.05-.33-.13-.47-.24-.13-.11-.24-.24-.31-.39-.08-.15-.12-.34-.12-.54v-1.4c0-.2.04-.38.12-.54.08-.15.19-.28.33-.39.14-.1.29-.18.47-.23.18-.05.36-.08.55-.08s.37.03.55.08c.18.06.33.14.47.24.14.1.24.24.33.39.08.16.12.34.12.54v1.38ZM65.63,31.58c0-.13-.02-.23-.06-.32-.04-.09-.09-.16-.16-.21-.07-.05-.14-.1-.22-.12-.08-.03-.17-.04-.26-.04s-.18.01-.26.04c-.09.03-.16.07-.23.12-.07.06-.12.13-.16.21-.04.09-.06.19-.06.32v1.11c0,.13.02.23.06.32.04.09.09.16.16.22.07.06.14.09.23.12.08.02.17.04.26.04s.17-.01.26-.04c.08-.02.16-.06.22-.12.07-.06.12-.13.16-.22.04-.09.06-.2.06-.32v-1.11Z"/>
        <path class="cls-3" d="M77.64,32.83c0,.21-.04.39-.12.54-.08.15-.18.29-.32.39-.13.11-.29.19-.47.24-.18.05-.37.08-.57.08s-.39-.03-.57-.08c-.18-.05-.33-.13-.47-.24-.13-.11-.24-.24-.31-.39-.08-.15-.12-.34-.12-.54v-1.4c0-.2.04-.38.12-.54.08-.15.19-.28.33-.39.14-.1.29-.18.47-.23.18-.05.36-.08.55-.08s.37.03.55.08c.18.06.33.14.47.24.14.1.24.24.33.39.08.16.12.34.12.54v1.38ZM76.88,31.58c0-.13-.02-.23-.06-.32-.04-.09-.09-.16-.16-.21-.07-.05-.14-.1-.22-.12-.08-.03-.17-.04-.26-.04s-.18.01-.26.04c-.09.03-.16.07-.23.12-.07.06-.12.13-.16.21-.04.09-.06.19-.06.32v1.11c0,.13.02.23.06.32.04.09.09.16.16.22.07.06.14.09.23.12.08.02.17.04.26.04s.17-.01.26-.04c.08-.02.16-.06.22-.12.07-.06.12-.13.16-.22.04-.09.06-.2.06-.32v-1.11Z"/>
        <path class="cls-3" d="M68.75,30.23c.19,0,.36.04.5.11.14.07.25.17.34.28.09.11.16.24.2.38.04.14.06.28.06.42,0,.1-.01.2-.04.31-.03.11-.07.21-.12.3-.05.09-.12.18-.2.26-.08.08-.17.14-.27.2l.69,1.56h-.82s-.04-.1-.07-.17c-.03-.08-.07-.16-.11-.25-.04-.09-.08-.19-.12-.29-.04-.1-.08-.2-.12-.29-.04-.09-.07-.18-.1-.25-.03-.08-.06-.13-.08-.17h-.69v1.43h-.76v-3.81h1.7ZM67.8,31.93h.77c.18,0,.31-.05.4-.14.09-.09.13-.22.13-.36s-.05-.27-.14-.37c-.09-.1-.22-.14-.4-.14h-.77v1.02Z"/>
        <polygon class="cls-3" points="71.87 30.91 71.87 34.04 71.11 34.04 71.11 30.91 70.1 30.91 70.1 30.23 72.88 30.23 72.88 30.91 71.87 30.91"/>
        <rect class="cls-3" x="78.98" y="31.46" width=".78" height=".68"/>
        <polygon class="cls-3" points="78.23 30.23 78.23 30.91 78.23 30.91 78.23 34.04 78.99 34.04 78.99 30.91 80 30.91 80 30.23 78.23 30.23"/>
      </g>
    </g>
  </g>
</svg>